HIERARCHY
ROOT Hips
{
	OFFSET 0.000000 103.266502 0.000000
	CHANNELS 6 Xposition Yposition Zposition Xrotation Yrotation Zrotation 
	JOINT Spine
	{
		OFFSET -0.002400 12.777504 0.315300
		CHANNELS 3 Xrotation Yrotation Zrotation
		JOINT Spine1
		{
			OFFSET -0.002067 5.816869 0.032633
			CHANNELS 3 Xrotation Yrotation Zrotation
			JOINT Spine1_split
			{
				OFFSET -0.002067 5.816869 0.032633
				CHANNELS 3 Xrotation Yrotation Zrotation
				JOINT Spine2
				{
					OFFSET -0.002067 5.816869 0.032633
					CHANNELS 3 Xrotation Yrotation Zrotation
					JOINT Neck
					{
						OFFSET -0.003700 21.199493 -0.826900
						CHANNELS 3 Xrotation Yrotation Zrotation
						JOINT Head
						{
							OFFSET 0.000000 20.442200 4.834800
							CHANNELS 3 Xrotation Yrotation Zrotation
							JOINT HeadTop_End
							{
								OFFSET 0.000000 34.668396 4.968400
								CHANNELS 3 Xrotation Yrotation Zrotation
								End Site
								{
									OFFSET 0.000000 0.000000 0.000000
								}
							}
						}
					}
					JOINT LeftShoulder
					{
						OFFSET 3.288150 8.794197 -1.372250
						CHANNELS 3 Xrotation Yrotation Zrotation
						JOINT LeftShoulder_split
						{
							OFFSET 3.288150 8.794197 -1.372250
							CHANNELS 3 Xrotation Yrotation Zrotation
							JOINT LeftArm
							{
								OFFSET 11.953299 -2.279007 -0.146200
								CHANNELS 3 Xrotation Yrotation Zrotation
								JOINT LeftForeArm
								{
									OFFSET 18.448900 0.000000 0.000000
									CHANNELS 3 Xrotation Yrotation Zrotation
									JOINT LeftHand
									{
										OFFSET 29.527798 0.000000 0.000000
										CHANNELS 3 Xrotation Yrotation Zrotation
										JOINT LeftHandThumb1
										{
											OFFSET 10.739754 -2.369614 9.225399
											CHANNELS 3 Xrotation Yrotation Zrotation
											JOINT LeftHandThumb2
											{
												OFFSET 4.926170 -2.844131 2.844125
												CHANNELS 3 Xrotation Yrotation Zrotation
												JOINT LeftHandThumb3
												{
													OFFSET 4.614891 -2.664413 2.664409
													CHANNELS 3 Xrotation Yrotation Zrotation
													JOINT LeftHandThumb4
													{
														OFFSET 4.432465 -2.559082 2.559083
														CHANNELS 3 Xrotation Yrotation Zrotation
														End Site
														{
															OFFSET 0.000000 0.000000 0.000000
														}
													}
												}
											}
										}
										JOINT LeftHandIndex1
										{
											OFFSET 26.467674 0.187653 6.405298
											CHANNELS 3 Xrotation Yrotation Zrotation
											JOINT LeftHandIndex2
											{
												OFFSET 8.792900 0.000000 0.000000
												CHANNELS 3 Xrotation Yrotation Zrotation
												JOINT LeftHandIndex3
												{
													OFFSET 10.075203 0.000000 0.000000
													CHANNELS 3 Xrotation Yrotation Zrotation
													End Site
													{
														OFFSET 0.000000 0.000000 0.000000
													}
												}
											}
										}
										JOINT LeftHandMiddle1
										{
											OFFSET 25.764404 0.000000 0.000000
											CHANNELS 3 Xrotation Yrotation Zrotation
											JOINT LeftHandMiddle2
											{
												OFFSET 9.393974 0.000000 0.000000
												CHANNELS 3 Xrotation Yrotation Zrotation
												JOINT LeftHandMiddle3
												{
													OFFSET 10.771950 0.000000 0.000000
													CHANNELS 3 Xrotation Yrotation Zrotation
													End Site
													{
														OFFSET 0.000000 0.000000 0.000000
													}
												}
											}
										}
										JOINT LeftHandRing1
										{
											OFFSET 24.660927 0.144547 -6.225808
											CHANNELS 3 Xrotation Yrotation Zrotation
											JOINT LeftHandRing2
											{
												OFFSET 9.393799 0.000000 0.000000
												CHANNELS 3 Xrotation Yrotation Zrotation
												JOINT LeftHandRing3
												{
													OFFSET 9.928497 0.000000 0.000000
													CHANNELS 3 Xrotation Yrotation Zrotation
													End Site
													{
														OFFSET 0.000000 0.000000 0.000000
													}
												}
											}
										}
										JOINT LeftHandPinky1
										{
											OFFSET 23.655350 0.125290 -12.815412
											CHANNELS 3 Xrotation Yrotation Zrotation
											JOINT LeftHandPinky2
											{
												OFFSET 8.425102 0.000000 0.000000
												CHANNELS 3 Xrotation Yrotation Zrotation
												JOINT LeftHandPinky3
												{
													OFFSET 8.147003 0.000000 0.000000
													CHANNELS 3 Xrotation Yrotation Zrotation
													End Site
													{
														OFFSET 0.000000 0.000000 0.000000
													}
												}
											}
										}
									}
								}
							}
						}
					}
					JOINT RightShoulder
					{
						OFFSET -3.249400 8.794197 -1.372250
						CHANNELS 3 Xrotation Yrotation Zrotation
						JOINT RightShoulder_split
						{
							OFFSET -3.249400 8.794197 -1.372250
							CHANNELS 3 Xrotation Yrotation Zrotation
							JOINT RightArm
							{
								OFFSET -11.953299 -2.279007 -0.146200
								CHANNELS 3 Xrotation Yrotation Zrotation
								JOINT RightForeArm
								{
									OFFSET -18.448900 0.000000 0.000000
									CHANNELS 3 Xrotation Yrotation Zrotation
									JOINT RightHand
									{
										OFFSET -29.527802 0.000000 0.000000
										CHANNELS 3 Xrotation Yrotation Zrotation
										JOINT RightHandThumb1
										{
											OFFSET -10.739754 -2.369614 9.225399
											CHANNELS 3 Xrotation Yrotation Zrotation
											JOINT RightHandThumb2
											{
												OFFSET -4.926170 -2.844131 2.844125
												CHANNELS 3 Xrotation Yrotation Zrotation
												JOINT RightHandThumb3
												{
													OFFSET -4.614891 -2.664413 2.664409
													CHANNELS 3 Xrotation Yrotation Zrotation
													JOINT RightHandThumb4
													{
														OFFSET -4.432465 -2.559082 2.559083
														CHANNELS 3 Xrotation Yrotation Zrotation
														End Site
														{
															OFFSET 0.000000 0.000000 0.000000
														}
													}
												}
											}
										}
										JOINT RightHandIndex1
										{
											OFFSET -26.467674 0.187653 6.405298
											CHANNELS 3 Xrotation Yrotation Zrotation
											JOINT RightHandIndex2
											{
												OFFSET -8.792900 0.000000 0.000000
												CHANNELS 3 Xrotation Yrotation Zrotation
												JOINT RightHandIndex3
												{
													OFFSET -10.075203 0.000000 0.000000
													CHANNELS 3 Xrotation Yrotation Zrotation
													End Site
													{
														OFFSET 0.000000 0.000000 0.000000
													}
												}
											}
										}
										JOINT RightHandMiddle1
										{
											OFFSET -25.764404 0.000000 0.000000
											CHANNELS 3 Xrotation Yrotation Zrotation
											JOINT RightHandMiddle2
											{
												OFFSET -9.393974 0.000000 0.000000
												CHANNELS 3 Xrotation Yrotation Zrotation
												JOINT RightHandMiddle3
												{
													OFFSET -10.771950 0.000000 0.000000
													CHANNELS 3 Xrotation Yrotation Zrotation
													End Site
													{
														OFFSET 0.000000 0.000000 0.000000
													}
												}
											}
										}
										JOINT RightHandRing1
										{
											OFFSET -24.660927 0.144547 -6.225808
											CHANNELS 3 Xrotation Yrotation Zrotation
											JOINT RightHandRing2
											{
												OFFSET -9.393799 0.000000 0.000000
												CHANNELS 3 Xrotation Yrotation Zrotation
												JOINT RightHandRing3
												{
													OFFSET -9.928497 0.000000 0.000000
													CHANNELS 3 Xrotation Yrotation Zrotation
													End Site
													{
														OFFSET 0.000000 0.000000 0.000000
													}
												}
											}
										}
										JOINT RightHandPinky1
										{
											OFFSET -23.655350 0.125290 -12.815412
											CHANNELS 3 Xrotation Yrotation Zrotation
											JOINT RightHandPinky2
											{
												OFFSET -8.425102 0.000000 0.000000
												CHANNELS 3 Xrotation Yrotation Zrotation
												JOINT RightHandPinky3
												{
													OFFSET -8.147003 0.000000 0.000000
													CHANNELS 3 Xrotation Yrotation Zrotation
													End Site
													{
														OFFSET 0.000000 0.000000 0.000000
													}
												}
											}
										}
									}
								}
							}
						}
					}
				}
			}
		}
	}
	JOINT LeftUpLeg
	{
		OFFSET 11.394100 -6.187798 -0.413800
		CHANNELS 3 Xrotation Yrotation Zrotation
		JOINT LeftLeg
		{
			OFFSET 0.430247 -32.302673 3.732800
			CHANNELS 3 Xrotation Yrotation Zrotation
			JOINT LeftFoot
			{
				OFFSET -0.430247 -48.264931 -6.423300
				CHANNELS 3 Xrotation Yrotation Zrotation
				JOINT LeftToeBase
				{
					OFFSET 4.230900 -16.068199 23.438400
					CHANNELS 3 Xrotation Yrotation Zrotation
					JOINT LeftToe_End
					{
						OFFSET 4.510700 0.695400 19.974600
						CHANNELS 3 Xrotation Yrotation Zrotation
						End Site
						{
							OFFSET 0.000000 0.000000 0.000000
						}
					}
				}
			}
		}
	}
	JOINT RightUpLeg
	{
		OFFSET -11.333700 -6.187798 -0.413800
		CHANNELS 3 Xrotation Yrotation Zrotation
		JOINT RightLeg
		{
			OFFSET -0.430392 -32.302628 3.733000
			CHANNELS 3 Xrotation Yrotation Zrotation
			JOINT RightFoot
			{
				OFFSET 0.430392 -48.264973 -6.423500
				CHANNELS 3 Xrotation Yrotation Zrotation
				JOINT RightToeBase
				{
					OFFSET -4.230900 -16.068199 23.438400
					CHANNELS 3 Xrotation Yrotation Zrotation
					JOINT RightToe_End
					{
						OFFSET -4.510700 0.695400 19.974600
						CHANNELS 3 Xrotation Yrotation Zrotation
						End Site
						{
							OFFSET 0.000000 0.000000 0.000000
						}
					}
				}
			}
		}
	}
}
MOTION
Frames: 6
Frame Time: 0.016667
-0.301234 89.714882 0.171716 3.020389 -58.275119 6.520221 11.191478 0.139445 -2.738952 8.434585 0.027705 -5.592320 0.000000 0.000000 0.000000 8.457051 0.027855 -5.591867 -21.555710 25.063295 12.062585 -0.293970 25.465860 -3.208982 0.000000 -0.000000 0.000001 -6.221659 -11.503845 -4.023808 0.000000 0.000000 0.000000 -23.062127 9.568690 -36.639641 0.046193 -43.169442 -0.011119 22.743710 -5.685683 15.979222 -1.060972 -7.956215 8.492268 2.373403 19.986114 -2.038333 0.808208 1.237726 2.631740 0.000001 0.000001 0.000001 13.340884 -1.006693 10.682271 -0.163440 0.317209 -31.105627 -0.000000 0.000000 0.000000 8.500037 -0.329634 -0.915278 0.231515 0.661152 -29.901848 0.000001 -0.000000 -0.000001 6.121119 3.156123 -16.211136 0.046237 0.321022 -30.125461 0.000000 0.000001 -0.000002 -5.637152 7.705246 -13.879844 0.225726 0.277890 -46.588358 -0.000000 0.000002 0.000000 -5.488242 10.658286 2.466533 0.000000 0.000000 0.000000 -41.473790 -26.755634 30.079077 24.955307 111.863083 -23.308301 -8.702516 12.422977 -9.801958 0.262733 10.061709 -10.891934 1.381136 -17.410704 3.018933 3.345873 -13.256893 -8.254637 0.000001 -0.000000 0.000001 19.443599 11.174426 -13.340173 -0.109207 -0.315759 18.035647 -0.000000 -0.000001 0.000001 4.320488 2.436944 -4.811724 0.344836 -0.463969 26.890294 0.000001 0.000001 0.000003 -7.011550 -10.695701 5.718766 0.110926 -0.095450 26.155846 -0.000001 0.000002 0.000002 -19.433553 -20.238189 5.987847 0.209885 -0.086858 36.844632 -0.000001 0.000002 0.000004 -38.843904 8.050534 26.435844 42.591366 -7.221223 -9.679420 -5.196308 -2.775457 -10.075426 -0.327080 1.238501 0.835611 -0.000000 0.000000 -0.000000 -36.671443 -6.164021 -25.580274 47.512684 1.674870 -7.598778 -14.422113 3.648917 21.060487 -0.318020 -0.997936 -0.837062 -0.000000 -0.000000 -0.000000 
-0.288103 89.704002 0.150696 3.045027 -58.249438 6.503554 11.154690 0.156152 -2.696222 8.361916 0.067350 -5.504508 0.000000 0.000000 0.000000 8.384386 0.067492 -5.504035 -20.955328 25.198829 11.976190 -0.203333 25.677159 -3.208822 0.000000 0.000000 -0.000001 -5.897214 -11.434708 -4.094850 0.000000 0.000000 0.000000 -23.105801 9.541863 -36.578177 -0.430847 -43.369099 0.211669 22.768251 -5.683133 16.086395 -0.879745 -7.813318 8.278621 2.373400 19.986115 -2.038325 0.842241 1.254078 2.640822 -0.000000 0.000000 0.000001 13.334324 -1.036146 10.359196 -0.182384 0.317287 -31.248317 0.000000 -0.000002 -0.000001 8.499507 -0.328319 -1.009016 0.251449 0.631760 -29.985985 -0.000001 0.000001 -0.000002 6.121513 3.146044 -16.098237 0.080331 0.300933 -30.077175 -0.000001 0.000001 -0.000003 -5.734513 7.618933 -13.497790 0.245210 0.256983 -46.515313 0.000000 -0.000001 -0.000000 -5.087702 10.716896 2.386531 0.000000 0.000000 0.000000 -41.616708 -26.593133 29.801413 27.048606 111.876183 -25.310830 -8.426413 11.265945 -10.149973 0.161855 10.414123 -10.760820 1.389861 -17.409816 3.034349 3.358063 -13.306399 -8.277531 -0.000002 0.000003 -0.000000 19.555199 10.955325 -14.215779 -0.109605 -0.315374 17.606189 0.000002 0.000000 0.000000 4.375312 2.490909 -5.767839 0.342233 -0.462202 26.411520 -0.000003 0.000000 0.000000 -7.223204 -10.390295 4.582362 0.110960 -0.091256 25.535029 -0.000001 0.000003 0.000003 -19.709066 -19.569330 4.721566 0.207395 -0.083919 36.069293 0.000001 -0.000001 0.000001 -38.925371 8.033419 26.479409 42.617501 -7.276230 -9.665249 -5.176267 -2.771081 -10.073528 -0.326669 1.211376 0.835590 0.000000 0.000002 0.000000 -36.702107 -6.143792 -25.540780 47.556780 1.643838 -7.583895 -14.426770 3.639500 21.106681 -0.318044 -0.997904 -0.837096 0.000000 0.000002 0.000000 
-0.270471 89.683174 0.131423 3.082305 -58.233790 6.503042 11.182391 0.170634 -2.662664 8.418545 0.098064 -5.435016 0.000000 0.000000 0.000000 8.441000 0.098159 -5.434539 -20.687881 25.289863 11.929345 -0.113993 25.894258 -3.222224 0.000001 -0.000000 0.000000 -5.908035 -11.406751 -4.124969 0.000000 0.000000 0.000000 -23.202742 9.567586 -36.508355 -0.784475 -43.550082 0.142510 22.848557 -5.652420 16.178174 -0.879632 -7.742579 8.328723 2.373401 19.986112 -2.038328 0.833691 1.225335 2.626681 0.000000 -0.000000 0.000001 13.268571 -0.549100 10.431566 -0.182231 0.317233 -31.198942 -0.000000 0.000001 0.000003 8.506219 0.092363 -0.917201 0.251019 0.632026 -29.949696 -0.000001 -0.000000 0.000001 6.117625 3.143161 -16.039668 0.080065 0.300777 -30.030105 0.000000 -0.000000 -0.000002 -5.752445 7.603061 -13.427837 0.244824 0.257170 -46.451570 0.000000 0.000001 0.000000 -4.944353 10.745131 2.290180 0.000000 0.000000 0.000000 -41.728139 -26.359937 29.303711 31.240206 112.174642 -29.235686 -7.457844 10.204581 -10.911859 0.253654 10.146804 -10.866895 1.389860 -17.409836 3.034318 3.345226 -13.233899 -8.246507 -0.000002 0.000002 -0.000000 19.555689 10.849985 -14.310312 -0.109763 -0.315221 17.427308 0.000001 -0.000001 -0.000007 4.395317 2.480602 -5.884557 0.341324 -0.463249 26.238725 0.000001 -0.000003 -0.000001 -7.253364 -10.295832 4.470740 0.110980 -0.090330 25.398062 0.000004 0.000000 0.000002 -19.678106 -19.367582 4.682576 0.206951 -0.083435 35.949328 -0.000001 0.000001 0.000002 -39.025181 8.006385 26.522442 42.676060 -7.311008 -9.653133 -5.166433 -2.769919 -10.075654 -0.326673 1.211408 0.835587 -0.000000 0.000000 -0.000000 -36.761977 -6.107202 -25.497883 47.627934 1.615768 -7.586217 -14.434980 3.625073 21.168027 -0.317938 -0.997926 -0.837111 0.000000 -0.000001 -0.000000 
-0.249782 89.664642 0.114751 3.125306 -58.227117 6.511405 11.206601 0.184992 -2.630958 8.467454 0.128427 -5.368927 0.000000 0.000000 0.000000 8.489923 0.128553 -5.368457 -20.398447 25.378640 11.886849 -0.024567 26.120525 -3.255901 0.000000 0.000000 0.000001 -5.914309 -11.396592 -4.145977 0.000000 0.000000 0.000000 -23.347098 9.645241 -36.446753 -1.115213 -43.763426 0.039092 22.975529 -5.590289 16.230225 -0.833026 -7.696180 8.471574 2.373402 19.986112 -2.038330 0.820916 1.183480 2.606136 0.000001 0.000000 -0.000002 13.148562 -0.152182 10.582369 -0.181321 0.317238 -31.121969 0.000001 -0.000002 0.000000 8.510352 0.379036 -0.790062 0.249865 0.632831 -29.887873 0.000000 -0.000000 -0.000001 6.301396 3.763317 -15.938175 0.079961 0.300722 -29.987474 0.000000 -0.000000 -0.000002 -5.757956 7.590688 -13.381701 0.244378 0.257136 -46.375926 0.000000 0.000001 -0.000000 -4.707628 10.766302 2.133765 0.000000 0.000000 0.000000 -41.787220 -26.098336 28.599066 29.848033 111.261166 -27.947445 -9.059262 9.227794 -12.053767 0.390459 9.767101 -10.996383 1.388976 -17.406063 3.036281 3.326593 -13.128610 -8.201344 -0.000000 -0.000002 -0.000001 19.537095 10.750106 -14.301128 -0.109900 -0.315079 17.255129 0.000001 0.000002 -0.000003 4.410900 2.459038 -5.885783 0.340495 -0.463556 26.084940 0.000002 -0.000002 -0.000000 -7.077108 -10.207433 4.534573 0.110977 -0.089771 25.313728 0.000001 0.000001 0.000003 -19.588573 -19.216741 4.827906 0.206851 -0.083268 35.913565 -0.000001 0.000000 0.000002 -39.118819 7.981082 26.556153 42.731658 -7.336989 -9.638844 -5.159513 -2.767225 -10.078567 -0.326673 1.211421 0.835580 -0.000000 -0.000003 -0.000000 -36.823674 -6.061830 -25.457806 47.691639 1.592801 -7.587798 -14.435426 3.607776 21.236644 -0.318071 -0.997821 -0.837089 0.000000 -0.000000 -0.000000 
-0.214444 89.638367 0.101552 3.245362 -58.272667 6.616342 11.227613 0.210401 -2.589250 8.510472 0.182086 -5.283883 0.000000 0.000000 0.000000 8.532945 0.182202 -5.283419 -20.123266 25.465822 11.827793 0.030783 26.349797 -3.310550 0.000000 -0.000000 -0.000000 -5.926044 -11.422282 -4.222785 0.000000 0.000000 0.000000 -23.520450 9.796236 -36.349348 -1.367454 -44.014340 -0.092810 23.096452 -5.469984 16.276973 -0.872952 -7.621919 8.622275 2.373401 19.986112 -2.038329 0.802687 1.123883 2.577236 0.000001 0.000000 -0.000001 13.006597 0.275661 10.806250 -0.180260 0.317171 -31.004954 0.000000 -0.000001 0.000000 8.347301 0.679457 -0.626940 0.248362 0.633879 -29.793623 -0.000001 0.000000 0.000002 6.043473 4.073751 -15.833709 0.079745 0.300825 -29.949690 0.000000 0.000001 -0.000000 -5.551623 8.370391 -13.160976 0.243924 0.257173 -46.287909 0.000000 0.000000 0.000000 -4.380904 10.817074 1.921911 0.000000 0.000000 0.000000 -41.835001 -25.699714 27.556357 33.132257 111.078479 -31.040010 -9.114152 8.509550 -13.520062 0.577975 9.266004 -11.143531 1.384642 -17.394455 3.039665 3.300633 -12.982835 -8.138850 -0.000001 -0.000001 -0.000000 19.491883 10.662792 -14.126122 -0.110062 -0.314956 17.115752 0.000001 -0.000001 -0.000001 4.419089 2.420012 -5.708414 0.339928 -0.463688 25.978749 -0.000000 0.000002 0.000002 -6.990050 -10.170456 4.791146 0.110981 -0.089810 25.320148 0.000000 0.000003 0.000004 -19.420229 -19.149122 5.234016 0.207137 -0.083662 36.005837 -0.000001 0.000001 0.000002 -39.230677 7.948201 26.552089 42.812855 -7.295840 -9.617244 -5.168531 -2.754243 -10.100068 -0.326697 1.211803 0.835589 0.000000 -0.000002 0.000000 -36.978631 -5.953245 -25.440216 47.795505 1.619799 -7.590270 -14.420319 3.578843 21.335020 -0.318036 -0.997884 -0.837116 0.000000 -0.000001 -0.000000 
-0.142253 89.585732 0.094922 3.587611 -58.460217 6.996593 11.244231 0.268076 -2.515379 8.546367 0.302722 -5.136838 0.000000 0.000000 0.000000 8.568835 0.302889 -5.136381 -19.925591 25.551184 11.713881 -0.011177 26.575337 -3.397504 0.000000 0.000000 -0.000001 -5.953037 -11.533137 -4.473246 0.000000 0.000000 0.000000 -23.680992 10.079549 -36.137602 -1.474665 -44.312963 -0.242778 23.096655 -5.227705 16.359538 -0.942175 -7.547933 8.814612 2.373400 19.986112 -2.038331 0.779288 1.047052 2.539977 0.000001 0.000000 -0.000002 12.847798 0.701114 11.103140 -0.179091 0.317042 -30.840258 0.000000 -0.000000 0.000002 8.294423 0.960929 -0.431720 0.246613 0.634892 -29.660660 -0.000001 0.000000 0.000003 6.030495 4.281655 -15.747317 0.079439 0.301015 -29.916235 -0.000001 -0.000001 -0.000000 -5.479643 8.490224 -13.163100 0.243413 0.257279 -46.186839 -0.000000 -0.000000 -0.000000 -3.963142 10.971535 1.657933 0.000000 0.000000 0.000000 -41.951678 -24.993675 25.891999 38.210407 110.992842 -35.962080 -9.171552 8.396484 -15.240570 0.820355 8.640456 -11.297472 1.378357 -17.379452 3.044479 3.266254 -12.791419 -8.056729 -0.000001 0.000001 -0.000001 19.412490 10.595637 -13.718473 -0.110118 -0.314886 17.038636 0.000001 -0.000000 -0.000002 4.417018 2.356662 -5.284193 0.339776 -0.463727 25.951046 0.000001 -0.000000 0.000001 -6.856043 -10.191352 5.335956 0.110972 -0.090726 25.455418 -0.000000 0.000000 0.000003 -19.151956 -19.198559 5.981102 0.208017 -0.084684 36.270155 -0.000000 0.000000 0.000004 -39.404417 7.890591 26.451550 42.979163 -7.065291 -9.578056 -5.226390 -2.720023 -10.178224 -0.326698 1.212384 0.835589 0.000000 -0.000000 0.000000 -37.402980 -5.670409 -25.481182 48.026099 1.784412 -7.600207 -14.371360 3.519262 21.515468 -0.318130 -0.997778 -0.837055 0.000000 -0.000001 -0.000000 
